<svg width="45" height="45" viewBox="0 0 45 45" fill="none" xmlns="http://www.w3.org/2000/svg">
<rect width="45" height="45" rx="22.5" fill="black"/>
<path d="M26.0974 15.0589C26.1215 14.9804 26.13 14.898 26.1222 14.8162C26.1145 14.7345 26.0907 14.6551 26.0523 14.5826C26.0139 14.51 25.9616 14.4457 25.8983 14.3934C25.8351 14.3411 25.7621 14.3017 25.6836 14.2776C25.6052 14.2535 25.5227 14.245 25.441 14.2528C25.3593 14.2605 25.2799 14.2843 25.2073 14.3227C25.1348 14.3611 25.0705 14.4134 25.0182 14.4767C24.9659 14.54 24.9265 14.6129 24.9024 14.6914L19.9024 30.9414C19.8537 31.0998 19.8699 31.2712 19.9475 31.4177C20.0251 31.5642 20.1577 31.6739 20.3161 31.7226C20.4746 31.7714 20.6459 31.7551 20.7925 31.6775C20.939 31.6 21.0487 31.4673 21.0974 31.3089L26.0974 15.0589ZM19.0674 18.1826C19.1256 18.2407 19.1718 18.3096 19.2033 18.3856C19.2348 18.4615 19.251 18.5429 19.251 18.6251C19.251 18.7073 19.2348 18.7887 19.2033 18.8647C19.1718 18.9406 19.1256 19.0096 19.0674 19.0676L15.1336 23.0001L19.0674 26.9326C19.1848 27.05 19.2507 27.2091 19.2507 27.3751C19.2507 27.5411 19.1848 27.7003 19.0674 27.8176C18.95 27.935 18.7909 28.0009 18.6249 28.0009C18.4589 28.0009 18.2998 27.935 18.1824 27.8176L13.8074 23.4426C13.7492 23.3846 13.703 23.3156 13.6715 23.2397C13.64 23.1637 13.6238 23.0823 13.6238 23.0001C13.6238 22.9179 13.64 22.8365 13.6715 22.7606C13.703 22.6846 13.7492 22.6157 13.8074 22.5576L18.1824 18.1826C18.2405 18.1244 18.3094 18.0782 18.3854 18.0467C18.4613 18.0152 18.5427 17.999 18.6249 17.999C18.7071 17.999 18.7885 18.0152 18.8644 18.0467C18.9404 18.0782 19.0093 18.1244 19.0674 18.1826ZM26.9324 18.1826C26.8742 18.2407 26.828 18.3096 26.7965 18.3856C26.765 18.4615 26.7488 18.5429 26.7488 18.6251C26.7488 18.7073 26.765 18.7887 26.7965 18.8647C26.828 18.9406 26.8742 19.0096 26.9324 19.0676L30.8661 23.0001L26.9324 26.9326C26.8743 26.9907 26.8282 27.0597 26.7967 27.1356C26.7653 27.2116 26.7491 27.2929 26.7491 27.3751C26.7491 27.4573 26.7653 27.5387 26.7967 27.6146C26.8282 27.6905 26.8743 27.7595 26.9324 27.8176C26.9905 27.8757 27.0595 27.9218 27.1354 27.9533C27.2113 27.9847 27.2927 28.0009 27.3749 28.0009C27.4571 28.0009 27.5385 27.9847 27.6144 27.9533C27.6903 27.9218 27.7593 27.8757 27.8174 27.8176L32.1924 23.4426C32.2506 23.3846 32.2968 23.3156 32.3283 23.2397C32.3598 23.1637 32.376 23.0823 32.376 23.0001C32.376 22.9179 32.3598 22.8365 32.3283 22.7606C32.2968 22.6846 32.2506 22.6157 32.1924 22.5576L27.8174 18.1826C27.7593 18.1244 27.6904 18.0782 27.6144 18.0467C27.5385 18.0152 27.4571 17.999 27.3749 17.999C27.2927 17.999 27.2113 18.0152 27.1354 18.0467C27.0594 18.0782 26.9905 18.1244 26.9324 18.1826Z" fill="white"/>
</svg>
