<svg width="45" height="45" viewBox="0 0 45 45" fill="none" xmlns="http://www.w3.org/2000/svg">
<rect width="45" height="45" rx="22.5" fill="black"/>
<g clip-path="url(#clip0_3569_503)">
<path d="M31.6117 22.2259C29.6459 18.5917 26.1984 16.3926 22.3834 16.3926C18.5684 16.3926 15.1151 18.5917 13.1668 22.2259L13.0034 22.5001L13.1551 22.7801C15.1209 26.4142 18.5684 28.6134 22.3834 28.6134C26.1984 28.6134 29.6518 26.4434 31.6117 22.7801L31.7634 22.5001L31.6117 22.2259ZM22.3834 27.4176C19.0993 27.4176 16.0834 25.5859 14.3334 22.5001C16.0834 19.4142 19.0993 17.5826 22.3834 17.5826C25.6676 17.5826 28.6484 19.4201 30.4276 22.5001C28.6484 25.5859 25.6618 27.4176 22.3834 27.4176Z" fill="white"/>
<path d="M22.5525 18.5157C21.7616 18.5215 20.9901 18.7615 20.3355 19.2055C19.6809 19.6495 19.1726 20.2775 18.8747 21.0102C18.5768 21.7429 18.5028 22.5475 18.6619 23.3223C18.821 24.097 19.2061 24.8073 19.7687 25.3633C20.3312 25.9193 21.0459 26.2962 21.8225 26.4463C22.5991 26.5963 23.4027 26.5129 24.1319 26.2065C24.8611 25.9001 25.4831 25.3845 25.9195 24.7248C26.3558 24.0651 26.5868 23.2908 26.5834 22.4999C26.5811 21.9734 26.4749 21.4525 26.271 20.9671C26.067 20.4818 25.7693 20.0414 25.3948 19.6713C25.0204 19.3011 24.5766 19.0086 24.0888 18.8103C23.6011 18.612 23.079 18.5119 22.5525 18.5157ZM22.5525 25.3524C21.9939 25.3466 21.4493 25.1759 20.9873 24.8617C20.5254 24.5475 20.1665 24.1038 19.9559 23.5863C19.7453 23.0688 19.6923 22.5006 19.8035 21.9531C19.9148 21.4055 20.1853 20.9031 20.5812 20.5088C20.9771 20.1146 21.4806 19.8461 22.0286 19.737C22.5766 19.628 23.1446 19.6834 23.6612 19.8961C24.1778 20.1088 24.6201 20.4695 24.9324 20.9327C25.2447 21.396 25.4132 21.9412 25.4167 22.4999C25.4183 22.8759 25.3452 23.2485 25.2016 23.596C25.0581 23.9436 24.847 24.2592 24.5806 24.5245C24.3141 24.7899 23.9977 24.9997 23.6496 25.1418C23.3014 25.2839 22.9285 25.3555 22.5525 25.3524Z" fill="white"/>
</g>
<defs>
<clipPath id="clip0_3569_503">
<rect width="21" height="21" fill="white" transform="translate(12 12)"/>
</clipPath>
</defs>
</svg>
