<svg class="skills__icon" width="68" height="77" viewBox="0 0 68 77" fill="none" xmlns="http://www.w3.org/2000/svg">
<g clip-path="url(#clip0_7703_306)">
<path d="M65.8175 35.6867L36.5723 6.2703C35.7627 5.4569 34.665 5 33.5206 5C32.3762 5 31.2786 5.4569 30.469 6.2703L24.3881 12.3807L32.0931 20.1288C36.14 18.7542 39.9716 22.6508 38.5823 26.6979L46.0091 34.1663C51.1283 32.3916 55.1588 38.8284 51.3138 42.6919C47.3521 46.6757 40.8136 42.2603 42.9387 37.0763L36.0069 30.1147V48.4398C39.7906 50.3257 39.336 54.7337 37.3649 56.7113C36.4018 57.6792 35.096 58.2229 33.7345 58.2229C32.3729 58.2229 31.0671 57.6792 30.1041 56.7113C27.4764 54.0644 28.4485 49.6565 31.7865 48.2894V29.7914C28.6758 28.5116 28.1075 25.1684 28.9989 23.0238L21.403 15.3764L1.3449 35.5498C0.535665 36.3638 0.0810547 37.4676 0.0810547 38.6186C0.0810547 39.7695 0.535665 40.8734 1.3449 41.6873L30.5991 71.1037C31.4084 71.917 32.5058 72.3738 33.65 72.3738C34.7942 72.3738 35.8915 71.917 36.7009 71.1037L65.8175 41.8241C66.6267 41.0102 67.0813 39.9064 67.0813 38.7554C67.0813 37.6045 66.6267 36.5006 65.8175 35.6867Z" fill="black"/>
</g>
<defs>
<clipPath id="clip0_7703_306">
<rect width="67" height="77" fill="white" transform="translate(0.0810547)"/>
</clipPath>
</defs>
</svg>
