<svg width="73" height="72" viewBox="0 0 73 72" fill="none" xmlns="http://www.w3.org/2000/svg">
<path d="M26.6379 55.6763C26.6379 55.6763 23.8839 57.2805 28.5931 57.8183C34.2991 58.4753 37.2174 58.383 43.4994 57.186C43.4994 57.186 45.1486 58.23 47.4594 59.1323C33.3631 65.169 15.5611 58.77 26.6356 55.6763H26.6379ZM24.9121 47.8013C24.9121 47.8013 21.8184 50.085 26.5299 50.5643C32.6386 51.1965 37.4401 51.2573 45.7719 49.653C45.7719 49.653 46.9216 50.814 48.7396 51.4553C31.7004 56.4345 12.7149 51.8423 24.9144 47.8013H24.9121ZM39.4314 34.4318C42.8986 38.4278 38.5156 42.0255 38.5156 42.0255C38.5156 42.0255 47.3289 37.4648 43.2856 31.7723C39.5034 26.451 36.5964 23.8163 52.2969 14.7083C52.2969 14.7083 27.6526 20.862 39.4291 34.434L39.4314 34.4318ZM58.0659 61.5128C58.0659 61.5128 60.1066 63.1868 55.8271 64.4895C47.6934 66.9488 21.9714 67.6868 14.8231 64.5818C12.2581 63.468 17.0731 61.911 18.5851 61.5938C20.1669 61.2428 21.0691 61.3148 21.0691 61.3148C18.2094 59.2988 2.60113 65.2635 13.1379 66.9735C41.8839 71.6378 65.5291 64.8765 58.0659 61.5128ZM27.9609 39.6338C27.9609 39.6338 14.8726 42.7388 23.3191 43.8638C26.8944 44.343 34.0089 44.2395 40.6419 43.677C46.0531 43.218 51.4936 42.246 51.4936 42.246C51.4936 42.246 49.5834 43.065 48.1996 44.0168C34.9089 47.5088 9.23638 45.8798 16.6299 42.3068C22.8759 39.294 27.9609 39.6338 27.9609 39.6338ZM51.4329 52.758C64.9329 45.7268 58.6869 38.988 54.3399 39.9038C53.2711 40.113 52.7919 40.3155 52.7919 40.3155C52.7919 40.3155 53.1789 39.6923 53.9416 39.4245C62.5659 36.3893 69.1989 48.3638 51.1629 53.1113C51.1629 53.1 51.3766 52.9245 51.4329 52.7603V52.758ZM43.2879 0C43.2879 0 50.7669 7.47675 36.1869 18.9833C24.5049 28.2173 33.5251 33.48 36.1869 39.492C29.3671 33.3383 24.3631 27.927 27.7156 22.887C32.6476 15.4688 46.3006 11.8823 43.2879 0ZM29.2839 71.7773C42.2461 72.5963 62.1541 71.3093 62.6379 65.1803C62.6379 65.1803 61.7221 67.5 51.9121 69.3495C40.8511 71.4353 27.1981 71.1878 19.1004 69.8535C19.1004 69.8535 20.7654 71.2238 29.2816 71.7773H29.2839Z" fill="black"/>
</svg>
