<svg width="64" height="72" viewBox="0 0 64 72" fill="none" xmlns="http://www.w3.org/2000/svg">
<g clip-path="url(#clip0_7703_318)">
<path d="M0.0810547 5V68H63.0811V5H0.0810547ZM34.3654 54.1344C34.3654 60.2656 30.7654 63.0641 25.5201 63.0641C20.7811 63.0641 18.0389 60.6172 16.6326 57.65L21.4561 54.7391C22.3842 56.3844 23.2279 57.7766 25.267 57.7766C27.2076 57.7766 28.4451 57.0172 28.4451 54.05V33.9266H34.3654V54.1344ZM48.3717 63.0641C42.8732 63.0641 39.3154 60.4484 37.5857 57.0172L42.4092 54.2328C43.6748 56.3 45.3342 57.8328 48.2451 57.8328C50.692 57.8328 52.267 56.6094 52.267 54.9078C52.267 52.8828 50.6639 52.1656 47.9498 50.9703L46.4732 50.3375C42.1982 48.5234 39.3717 46.2313 39.3717 41.4078C39.3717 36.9641 42.7607 33.5891 48.0342 33.5891C51.8029 33.5891 54.5029 34.8969 56.4436 38.3281L51.8311 41.2812C50.8186 39.4672 49.7217 38.75 48.0201 38.75C46.2904 38.75 45.1936 39.8469 45.1936 41.2812C45.1936 43.0531 46.2904 43.7703 48.8357 44.8813L50.3123 45.5141C55.3467 47.6656 58.1732 49.8734 58.1732 54.8234C58.1732 60.1391 53.9826 63.0641 48.3717 63.0641Z" fill="black"/>
</g>
<defs>
<clipPath id="clip0_7703_318">
<rect width="63" height="72" fill="white" transform="translate(0.0810547)"/>
</clipPath>
</defs>
</svg>
