<svg width="73" height="72" viewBox="0 0 73 72" fill="none" xmlns="http://www.w3.org/2000/svg">
<g clip-path="url(#clip0_7703_324)">
<path d="M72.0811 35.067C72.0811 30.297 66.1081 25.776 56.9491 22.974C59.0641 13.641 58.1251 6.213 53.9851 3.834C52.9819 3.27216 51.8465 2.98936 50.6971 3.015V6.285C51.3721 6.285 51.9151 6.42 52.3711 6.669C54.3661 7.815 55.2331 12.171 54.5581 17.778C54.3961 19.158 54.1321 20.61 53.8081 22.092C50.741 21.3529 47.6281 20.8187 44.4901 20.493C42.6206 17.9139 40.5811 15.4624 38.3851 13.155C43.1701 8.709 47.6611 6.273 50.7151 6.273V3C46.6771 3 41.3941 5.877 36.0511 10.866C30.7111 5.91 25.4251 3.06 21.3901 3.06V6.33C24.4291 6.33 28.9351 8.754 33.7201 13.17C31.6651 15.33 29.6101 17.778 27.6571 20.493C24.5126 20.8151 21.3941 21.3544 18.3241 22.107C17.9996 20.7024 17.7443 19.2827 17.5591 17.853C16.8691 12.243 17.7211 7.887 19.7041 6.729C20.1421 6.465 20.7151 6.345 21.3901 6.345V3.075C20.1601 3.075 19.0411 3.339 18.0751 3.894C13.9501 6.273 13.0261 13.683 15.1531 22.989C6.02406 25.809 0.0810547 30.312 0.0810547 35.067C0.0810547 39.837 6.05406 44.358 15.2131 47.157C13.0981 56.493 14.0371 63.921 18.1771 66.297C19.1311 66.855 20.2471 67.119 21.4771 67.119C25.5151 67.119 30.7981 64.242 36.1411 59.253C41.4811 64.212 46.7641 67.059 50.8021 67.059C51.9604 67.0835 53.1044 66.7998 54.1171 66.237C58.2421 63.861 59.1661 56.451 57.0391 47.145C66.1381 44.343 72.0811 39.822 72.0811 35.067ZM52.9711 25.278C52.401 27.2396 51.7403 29.1736 50.9911 31.074C49.7645 28.6883 48.4178 26.3663 46.9561 24.117C49.0411 24.426 51.0511 24.807 52.9741 25.278H52.9711ZM46.2511 40.908C45.1522 42.8264 43.9722 44.6971 42.7141 46.515C38.3108 46.9031 33.8822 46.9081 29.4781 46.53C26.9519 42.9215 24.7427 39.1013 22.8751 35.112C24.7398 31.1133 26.9397 27.2796 29.4511 23.652C33.8532 23.2631 38.2808 23.2571 42.6841 23.634C43.9021 25.38 45.0931 27.246 46.2361 29.214C47.3521 31.134 48.3661 33.084 49.2901 35.052C48.3558 37.0439 47.342 38.9974 46.2511 40.908ZM50.9911 39C51.7831 40.965 52.4611 42.933 53.0161 44.841C51.0961 45.312 49.0681 45.708 46.9711 46.014C48.4268 43.7443 49.7684 41.4034 50.9911 39ZM36.1111 54.66C34.7461 53.25 33.3811 51.681 32.0311 49.962C33.3511 50.022 34.7011 50.067 36.0661 50.067C37.4461 50.067 38.8111 50.037 40.1461 49.962C38.8261 51.681 37.4611 53.25 36.1111 54.66ZM25.1911 46.014C23.1683 45.7209 21.1601 45.3345 19.1731 44.856C19.7161 42.963 20.3911 41.01 21.1531 39.06C21.7561 40.23 22.3891 41.406 23.0791 42.582C23.7691 43.755 24.4711 44.901 25.1911 46.014ZM36.0361 15.474C37.4011 16.884 38.7661 18.453 40.1161 20.172C38.7961 20.112 37.4461 20.067 36.0811 20.067C34.7011 20.067 33.3361 20.097 32.0011 20.172C33.3211 18.453 34.6861 16.884 36.0361 15.474ZM25.1761 24.12C23.7207 26.3848 22.379 28.7207 21.1561 31.119C20.3857 29.2064 19.7099 27.257 19.1311 25.278C21.0511 24.822 23.0791 24.426 25.1761 24.12ZM11.8951 42.492C6.69905 40.278 3.33905 37.371 3.33905 35.067C3.33905 32.763 6.69905 29.841 11.8951 27.642C13.1551 27.099 14.5351 26.613 15.9601 26.16C16.7971 29.034 17.8981 32.028 19.2601 35.097C17.9742 37.9836 16.8866 40.9544 16.0051 43.989C14.6114 43.5575 13.2398 43.0579 11.8951 42.492ZM19.7911 63.462C17.7961 62.322 16.9291 57.96 17.6041 52.356C17.7661 50.976 18.0301 49.521 18.3541 48.039C21.2281 48.744 24.3691 49.287 27.6721 49.641C29.5416 52.2201 31.5811 54.6715 33.7771 56.979C28.9921 61.425 24.5011 63.861 21.4471 63.861C20.8709 63.8673 20.3021 63.7313 19.7911 63.465V63.462ZM54.6031 52.281C55.2931 57.888 54.4411 62.247 52.4581 63.405C52.0201 63.669 51.4471 63.786 50.7721 63.786C47.7331 63.786 43.2271 61.365 38.4421 56.946C40.6288 54.6482 42.6546 52.2024 44.5051 49.626C47.6496 49.3039 50.768 48.7646 53.8381 48.012C54.1771 49.494 54.4381 50.916 54.6031 52.281ZM60.2521 42.492C58.9921 43.035 57.6121 43.521 56.1871 43.974C55.29 40.924 54.1875 37.9381 52.8871 35.037C54.2371 31.986 55.3201 29.007 56.1421 26.145C57.5401 26.578 58.9167 27.0775 60.2671 27.642C65.4631 29.856 68.8231 32.763 68.8231 35.067C68.8081 37.371 65.4481 40.293 60.2521 42.492Z" fill="black"/>
<path d="M36.0659 41.775C37.845 41.775 39.5512 41.0683 40.8092 39.8103C42.0672 38.5523 42.7739 36.8461 42.7739 35.067C42.7739 33.2879 42.0672 31.5817 40.8092 30.3237C39.5512 29.0657 37.845 28.359 36.0659 28.359C34.2868 28.359 32.5806 29.0657 31.3226 30.3237C30.0646 31.5817 29.3579 33.2879 29.3579 35.067C29.3579 36.8461 30.0646 38.5523 31.3226 39.8103C32.5806 41.0683 34.2868 41.775 36.0659 41.775Z" fill="black"/>
</g>
<defs>
<clipPath id="clip0_7703_324">
<rect width="72" height="72" fill="white" transform="translate(0.0810547)"/>
</clipPath>
</defs>
</svg>
