<svg width="68" height="67" viewBox="0 0 68 67" fill="none" xmlns="http://www.w3.org/2000/svg">
<path d="M33.939 39.1531C32.9319 39.6159 31.8285 40.2189 29.6196 41.4311C28.7821 41.9022 27.9069 42.3733 27.0924 42.8172C27.0359 42.7607 26.9773 42.6895 26.9207 42.6309C22.5511 37.9618 14.4692 34.6641 14.8126 28.3934C14.9403 26.1091 15.7255 20.1126 30.3335 12.8305C42.3559 6.90521 51.9222 8.54671 53.5742 12.1877C55.9485 17.3781 48.4466 27.0366 36.0306 28.4373C34.6565 28.7161 33.2373 28.6824 31.8779 28.3388C30.5185 27.9953 29.2537 27.3506 28.177 26.4525C27.5195 25.7385 27.4211 25.6966 27.1783 25.839C26.7784 26.0484 27.0359 26.6953 27.1783 27.0659C27.6519 27.9234 28.2926 28.6772 29.0625 29.2828C29.8325 29.8885 30.7161 30.3335 31.661 30.5918C36.547 31.6479 41.6412 31.1433 46.2251 29.1492C53.75 26.2368 59.6251 18.1403 57.904 11.3523C56.1767 4.47018 44.7532 2.20055 33.9453 6.04049C27.1768 8.32141 20.9233 11.912 15.5412 16.6076C9.58658 22.177 8.6444 27.0178 9.02965 29.0445C10.4157 36.2407 20.3359 40.9245 24.314 44.3938C24.1046 44.509 23.9288 44.6032 23.7717 44.6932C21.7869 45.6794 14.2201 49.6345 12.3336 53.8178C10.1917 58.558 12.677 61.9562 14.3185 62.4126C16.7922 63.0052 19.3892 62.8104 21.7469 61.8554C24.1046 60.9005 26.1052 59.2331 27.4693 57.0861C28.6277 55.3057 29.3391 53.2719 29.5428 51.1577C29.7466 49.0434 29.4368 46.9112 28.6397 44.9424C29.11 44.5673 29.6115 44.2331 30.1388 43.9436C31.1522 43.3448 32.1174 42.7544 32.9738 42.298C35.9058 40.9246 39.1056 40.2174 42.3433 40.2272C49.1396 41.0271 50.4817 45.2669 50.2242 47.0529C50.1037 47.6865 49.8489 48.287 49.4769 48.8139C49.1049 49.3409 48.6244 49.782 48.0676 50.1076C47.5965 50.4071 47.4395 50.5076 47.4814 50.7211C47.5379 51.0352 47.7661 51.0205 48.166 50.964C49.1871 50.6413 50.0867 50.0172 50.7466 49.1738C51.4066 48.3304 51.7959 47.3071 51.8636 46.2384C52.073 42.0509 48.0802 37.4572 41.0117 37.4991C38.8951 37.5027 36.7998 37.9202 34.8435 38.7281C34.5294 38.8579 34.2244 38.9975 33.9285 39.1469L33.939 39.1531ZM23.8366 55.5661C21.5796 58.022 18.439 58.9496 17.0822 58.1644C15.6166 57.3269 16.1966 53.6942 18.9666 51.0959C20.6072 49.6177 22.3804 48.2938 24.2638 47.1408C24.5925 46.9314 25.0782 46.6551 25.6624 46.3033L25.8194 46.2175L26.1628 46.0081C26.6568 47.6645 26.7018 49.4224 26.293 51.1018C25.8843 52.7813 25.0366 54.3219 23.8366 55.5661Z" fill="black"/>
</svg>
