<svg width="73" height="72" viewBox="0 0 73 72" fill="none" xmlns="http://www.w3.org/2000/svg">
<path d="M60.6961 49.176C53.2891 59.043 37.4731 55.713 27.3301 56.19C27.3301 56.19 25.5331 56.292 23.7271 56.589C23.7271 56.589 24.4111 56.298 25.2841 55.995C32.4061 53.532 35.7721 53.037 40.1011 50.814C48.2311 46.65 56.3251 37.575 57.9721 28.149C54.8761 37.215 45.4621 45.018 36.8911 48.186C31.0261 50.352 20.4151 52.458 20.4121 52.458C20.2679 52.3842 20.1249 52.3082 19.9831 52.23C12.7681 48.72 12.5581 33.09 25.6651 28.053C31.4131 25.845 36.9061 27.057 43.1191 25.578C49.7431 24.003 57.4171 19.038 60.5341 12.546C64.0291 22.92 68.2291 39.144 60.6961 49.176ZM60.8221 9.33597C59.9841 11.3452 58.9117 13.2484 57.6271 15.006C54.8346 12.1279 51.4925 9.84002 47.7991 8.27803C44.1057 6.71605 40.1362 5.91179 36.1261 5.91297C19.5571 5.91297 6.08106 19.389 6.08106 35.955C6.07912 40.0872 6.93235 44.1752 8.58708 47.9617C10.2418 51.7482 12.6622 55.1513 15.6961 57.957L16.3561 58.539C15.875 58.0571 15.605 57.4039 15.6054 56.723C15.6058 56.0421 15.8766 55.3893 16.3583 54.908C16.84 54.4268 17.493 54.1565 18.1739 54.1566C18.8548 54.1568 19.5078 54.4273 19.9893 54.9088C20.4707 55.3902 20.7413 56.0432 20.7414 56.7241C20.7415 57.405 20.4713 58.0581 19.99 58.5397C19.5087 59.0214 18.8559 59.2922 18.175 59.2926C17.4941 59.293 16.8409 59.023 16.3591 58.542L16.8061 58.938C22.2073 63.5044 29.0532 66.0068 36.1261 66C51.9601 66 64.9651 53.676 66.0781 38.124C66.9001 30.507 64.6501 20.835 60.8221 9.33597Z" fill="black"/>
</svg>
